<?xml version="1.0" encoding="UTF-8"?>
<!DOCTYPE svg PUBLIC "-//W3C//DTD SVG 1.1//EN" "http://www.w3.org/Graphics/SVG/1.1/DTD/svg11.dtd">
<!-- Creator: CorelDRAW X7 -->
<svg xmlns="http://www.w3.org/2000/svg" xml:space="preserve" width="9.7021mm" height="8.0501mm" version="1.1" style="shape-rendering:geometricPrecision; text-rendering:geometricPrecision; image-rendering:optimizeQuality; fill-rule:evenodd; clip-rule:evenodd"
viewBox="0 0 22 18"
 xmlns:xlink="http://www.w3.org/1999/xlink">
 <defs>
  <style type="text/css">
   <![CDATA[
    .fil0 {fill:#00AFEF}
   ]]>
  </style>
 </defs>
 <g id="Layer_x0020_1">
  <metadata id="CorelCorpID_0Corel-Layer"/>
  <path class="fil0" d="M20 1c0,0 0,0 1,0 0,0 0,-1 1,-1l-11 10c0,0 -1,2 -2,2 0,0 0,0 0,0l-1 -2 12 -9zm-4 17c0,0 1,-4 1,-4l4 -12c0,0 1,-1 1,-2 -1,0 -2,0 -3,1 -3,0 -19,5 -19,5 0,0 1,0 1,0 1,1 6,4 6,4 0,0 1,5 1,5 0,0 2,-2 3,-2 0,1 4,4 5,5z"/>
 </g>
</svg>
