<svg width="26" height="29" viewBox="0 0 26 29" fill="none" xmlns="http://www.w3.org/2000/svg">
<path d="M22.8745 3.23728C22.2226 2.64499 19.4088 0.876943 13.5375 0.851332C13.5375 0.851332 6.58497 0.394537 3.21 3.45148C1.3316 5.30613 0.698787 8.06414 0.629407 11.4298C0.560026 14.7955 0.200549 21.2251 6.35681 22.9354C6.35681 22.9354 6.33259 27.7087 6.3298 28.1282C6.3298 28.4216 6.37637 28.6223 6.544 28.6637C6.6646 28.693 6.84527 28.6306 6.99893 28.4774C7.9833 27.4889 11.1348 23.6869 11.1348 23.6869C15.3633 23.963 18.7275 23.1281 19.0893 23.0099C19.9424 22.7356 24.5564 22.3393 25.3373 16.0317C26.1443 9.52998 25.0407 5.09194 22.8745 3.23728V3.23728Z" fill="#fd0100"/>
<path d="M16.4983 11.1501C16.4219 9.61073 15.6399 8.80222 14.1523 8.72461" stroke="#fff" stroke-linecap="round" stroke-linejoin="round"/>
<path d="M18.5218 11.8323C18.5528 10.3981 18.128 9.19984 17.2473 8.23752C16.3626 7.27178 15.138 6.74001 13.5664 6.625" stroke="#fff" stroke-linecap="round" stroke-linejoin="round"/>
<path d="M20.5919 12.633C20.573 10.1443 19.8294 8.18428 18.3611 6.75289C16.8927 5.32151 15.0667 4.59822 12.8828 4.58301" stroke="#fff" stroke-linecap="round" stroke-linejoin="round"/>
<path d="M14.2459 16.413C14.2459 16.413 14.7977 16.4595 15.0948 16.0935L15.674 15.3648C15.9534 15.0035 16.6277 14.773 17.288 15.1408C17.7828 15.423 18.2631 15.7298 18.7273 16.06C19.1654 16.3822 20.0627 17.131 20.0655 17.131C20.493 17.4919 20.5917 18.0218 20.3007 18.5805C20.3007 18.5838 20.2983 18.5894 20.2983 18.5922C19.9778 19.1478 19.5709 19.6489 19.0928 20.0766C19.0872 20.0794 19.0872 20.0822 19.0821 20.085C18.6667 20.4321 18.2587 20.6294 17.8579 20.6769C17.7989 20.6872 17.7389 20.6909 17.6791 20.688C17.5024 20.6897 17.3266 20.6627 17.1585 20.6079L17.1455 20.5889C16.528 20.4147 15.4971 19.9789 13.7803 19.0317C12.7868 18.4901 11.8409 17.8653 10.9529 17.1641C10.5078 16.8128 10.0832 16.4362 9.68124 16.0363L9.6384 15.9934L9.59556 15.9506L9.55272 15.9078C9.53829 15.8938 9.52432 15.8794 9.50988 15.8649C9.10994 15.463 8.73339 15.0384 8.3821 14.5933C7.68093 13.7053 7.05614 12.7596 6.51441 11.7663C5.56729 10.0491 5.13145 9.01906 4.9573 8.40068L4.93821 8.38765C4.88362 8.21958 4.85673 8.04376 4.85859 7.86706C4.85533 7.80724 4.85892 7.74725 4.8693 7.68825C4.91927 7.28811 5.11686 6.87974 5.46206 6.46315C5.46485 6.45803 5.46765 6.45803 5.47044 6.45244C5.89804 5.97437 6.39916 5.56757 6.95491 5.24736C6.9577 5.24736 6.96329 5.24457 6.96655 5.24457C7.52532 4.95354 8.05522 5.05226 8.41562 5.47739C8.41842 5.48018 9.16577 6.37747 9.4866 6.81564C9.81685 7.28023 10.1236 7.76106 10.4058 8.25634C10.7736 8.91615 10.5431 9.5918 10.1818 9.87025L9.45307 10.4495C9.08522 10.7466 9.13364 11.2984 9.13364 11.2984C9.13364 11.2984 10.213 15.3834 14.2459 16.413V16.413Z" fill="#fff"/>
</svg>
