<?xml version="1.0" encoding="UTF-8"?>
<!DOCTYPE svg PUBLIC "-//W3C//DTD SVG 1.1//EN" "http://www.w3.org/Graphics/SVG/1.1/DTD/svg11.dtd">
<!-- Creator: CorelDRAW X7 -->
<svg xmlns="http://www.w3.org/2000/svg" xml:space="preserve" width="29.5483mm" height="29.5484mm" version="1.1" style="shape-rendering:geometricPrecision; text-rendering:geometricPrecision; image-rendering:optimizeQuality; fill-rule:evenodd; clip-rule:evenodd"
viewBox="0 0 268 268"
 xmlns:xlink="http://www.w3.org/1999/xlink">
 <defs>
  <style type="text/css">
   <![CDATA[
    .str0 {stroke:#333333;stroke-width:3.84002}
    .fil1 {fill:none}
    .fil0 {fill:#333333}
   ]]>
  </style>
 </defs>
 <g id="Layer_x0020_1">
  <metadata id="CorelCorpID_0Corel-Layer"/>
  <g id="_963390848">
   <path class="fil0" d="M84 178l100 0 0 11c0,5 -4,9 -9,9l-82 0c-5,0 -9,-4 -9,-9l0 -11zm50 -68c13,0 24,11 24,24 0,14 -11,25 -24,25 -13,0 -24,-11 -24,-25 0,-13 11,-24 24,-24zm0 5c11,0 19,9 19,19 0,11 -8,20 -19,20 -11,0 -19,-9 -19,-20 0,-10 8,-19 19,-19zm-50 -19l100 0 0 76 -100 0 0 -76zm50 9c16,0 29,13 29,29 0,17 -13,30 -29,30 -16,0 -29,-13 -29,-30 0,-16 13,-29 29,-29zm-41 -35l82 0c5,0 9,4 9,9l0 12 -100 0 0 -12c0,-5 4,-9 9,-9zm61 15c-2,-2 -2,-4 -1,-6 1,-2 4,-3 6,-2l-5 8zm6 -7c2,1 3,4 2,6 -2,2 -4,3 -6,2l4 -8zm13 0c2,1 3,4 1,6 -1,2 -3,3 -5,2l4 -8zm-6 7c-2,-2 -2,-4 -1,-6 1,-2 3,-3 6,-2l-5 8zm-70 -8l26 0 0 7 -26 0 0 -7z"/>
   <path class="fil1 str0" d="M98 48c48,-20 103,3 122,50 20,48 -3,103 -50,122 -48,20 -103,-3 -122,-50 -20,-48 3,-103 50,-122zm10 -44c18,-3 35,-3 52,0 -3,13 4,25 15,30 12,5 26,1 32,-10 15,10 27,22 37,37 -10,6 -15,20 -10,32 5,11 17,18 30,15 3,18 3,35 0,52 -13,-3 -25,4 -30,15 -5,12 -1,26 10,32 -10,15 -22,27 -37,37 -6,-10 -20,-15 -32,-10 -11,5 -18,17 -15,30 -18,3 -35,3 -52,0 3,-13 -4,-25 -15,-30 -12,-5 -26,-1 -32,10 -15,-10 -27,-22 -37,-37 11,-6 15,-20 10,-32 -5,-11 -17,-18 -30,-15 -3,-18 -3,-35 0,-52 13,3 25,-4 30,-15 5,-12 1,-26 -10,-32 10,-15 22,-27 37,-37 6,11 20,15 32,10 11,-5 18,-17 15,-30z"/>
  </g>
 </g>
</svg>
