<?xml version="1.0" encoding="utf-8"?><svg xmlns="http://www.w3.org/2000/svg" xmlns:xlink="http://www.w3.org/1999/xlink"><symbol viewBox="0 0 6 7" shape-rendering="geometricPrecision" text-rendering="geometricPrecision" image-rendering="optimizeQuality" fill-rule="evenodd" clip-rule="evenodd" id="arrowleft" xmlns="http://www.w3.org/2000/svg"><path d="M6 0H4L0 3l4 4h2L2 3l4-3zM4 2" fill="red" fill-rule="nonzero"/></symbol><symbol viewBox="0 0 6 7" shape-rendering="geometricPrecision" text-rendering="geometricPrecision" image-rendering="optimizeQuality" fill-rule="evenodd" clip-rule="evenodd" id="arrowright" xmlns="http://www.w3.org/2000/svg"><path d="M0 0h2l4 4-4 3H0l4-3-4-4zm2 2" fill="red" fill-rule="nonzero"/></symbol><symbol viewBox="0 0 107 106" shape-rendering="geometricPrecision" text-rendering="geometricPrecision" image-rendering="optimizeQuality" fill-rule="evenodd" clip-rule="evenodd" id="checked" xmlns="http://www.w3.org/2000/svg"><path stroke="#333" fill="none" stroke-width="2.261" d="M39 19c11-4 22-3 32 2l6-7c-3 1-5 1-8 0-5-2-7-7-6-12-7-1-13-1-20 0 1 5-2 10-6 12-5 2-10 0-13-4-6 4-10 9-14 14 4 3 6 8 4 13-2 4-7 7-12 6-1 6-1 13 0 20 5-1 10 1 12 6s0 10-4 13c4 5 9 10 14 14 3-4 8-6 13-4 4 2 7 7 6 12 6 1 13 1 20 0-1-5 1-10 6-12s10 0 13 4c5-4 10-9 14-14-4-3-6-8-4-13s7-7 12-6c1-7 1-13 0-20-5 1-10-2-12-6 0-1 0-1-1-2l-4 5c7 19-2 39-20 47-19 7-40-2-48-20-8-19 1-40 20-48z"/><path fill="red" d="M36 35L26 46l28 29 53-63-24-1-32 40z"/></symbol><symbol viewBox="0 0 22 18" shape-rendering="geometricPrecision" text-rendering="geometricPrecision" image-rendering="optimizeQuality" fill-rule="evenodd" clip-rule="evenodd" id="contacttelegram1" xmlns="http://www.w3.org/2000/svg"><defs><style/></defs><path class="adfil0" fill="#fd0100" d="M20 1h1s0-1 1-1L11 10s-1 2-2 2l-1-2 12-9zm-4 17l1-4 4-12s1-1 1-2c-1 0-2 0-3 1C16 1 0 6 0 6h1c1 1 6 4 6 4l1 5s2-2 3-2c0 1 4 4 5 5z" id="adLayer_x0020_1"/></symbol><symbol viewBox="0 0 22 18" shape-rendering="geometricPrecision" text-rendering="geometricPrecision" image-rendering="optimizeQuality" fill-rule="evenodd" clip-rule="evenodd" id="contacttelegram2" xmlns="http://www.w3.org/2000/svg"><path d="M20 1h1s0-1 1-1L11 10s-1 2-2 2l-1-2 12-9zm-4 17l1-4 4-12s1-1 1-2c-1 0-2 0-3 1C16 1 0 6 0 6h1c1 1 6 4 6 4l1 5s2-2 3-2c0 1 4 4 5 5z" fill="#00afef"/></symbol><symbol viewBox="0 0 22 18" shape-rendering="geometricPrecision" text-rendering="geometricPrecision" image-rendering="optimizeQuality" fill-rule="evenodd" clip-rule="evenodd" id="contacttelegram3" xmlns="http://www.w3.org/2000/svg"><defs><style/></defs><path class="affil0" fill="#fd0100" d="M20 1h1s0-1 1-1L11 10s-1 2-2 2l-1-2 12-9zm-4 17l1-4 4-12s1-1 1-2c-1 0-2 0-3 1C16 1 0 6 0 6h1c1 1 6 4 6 4l1 5s2-2 3-2c0 1 4 4 5 5z" id="afLayer_x0020_1"/></symbol><symbol fill="none" viewBox="0 0 26 29" id="contactviber1" xmlns="http://www.w3.org/2000/svg"><path d="M22.875 3.237c-.652-.592-3.466-2.36-9.338-2.386 0 0-6.952-.456-10.327 2.6C1.332 5.306.699 8.064.63 11.43.56 14.796.2 21.225 6.356 22.935l-.027 5.193c0 .294.046.494.214.536.12.029.301-.033.455-.187.984-.988 4.136-4.79 4.136-4.79 4.228.276 7.592-.559 7.954-.677.853-.274 5.467-.67 6.248-6.978.807-6.502-.296-10.94-2.462-12.795z" fill="#fd0100"/><path d="M16.498 11.15c-.076-1.54-.858-2.348-2.346-2.425m4.37 3.107c.03-1.434-.394-2.632-1.275-3.594-.884-.966-2.109-1.498-3.68-1.613" stroke="#333" stroke-linecap="round" stroke-linejoin="round"/><path d="M20.592 12.633c-.019-2.489-.763-4.449-2.23-5.88-1.47-1.431-3.295-2.155-5.48-2.17" stroke="#333" stroke-linecap="round" stroke-linejoin="round"/><path d="M14.246 16.413s.552.046.849-.32l.579-.728c.28-.361.954-.592 1.614-.224.495.282.975.589 1.44.919.437.322 1.335 1.071 1.337 1.071.428.36.527.89.236 1.45l-.003.011a6.043 6.043 0 01-1.205 1.485c-.006.002-.006.005-.01.008-.416.347-.824.544-1.225.592a.811.811 0 01-.179.011 1.629 1.629 0 01-.52-.08l-.014-.02c-.617-.173-1.648-.61-3.365-1.556a20.041 20.041 0 01-2.827-1.868c-.445-.351-.87-.728-1.272-1.128l-.043-.043-.042-.042-.043-.043-.043-.043c-.4-.402-.777-.827-1.128-1.272a20.063 20.063 0 01-1.868-2.827C5.567 10.05 5.131 9.02 4.957 8.401l-.019-.013a1.63 1.63 0 01-.08-.52c-.003-.06 0-.12.011-.18.05-.4.248-.808.593-1.225.003-.005.006-.005.008-.01a6.032 6.032 0 011.485-1.206l.012-.002c.558-.291 1.088-.193 1.449.232.002.003.75.9 1.07 1.339.33.464.638.945.92 1.44.368.66.137 1.336-.224 1.614l-.729.58c-.368.297-.32.848-.32.848s1.08 4.085 5.113 5.115z" fill="#333"/></symbol><symbol fill="none" viewBox="0 0 26 29" id="contactviber2" xmlns="http://www.w3.org/2000/svg"><path d="M22.875 3.237c-.652-.592-3.466-2.36-9.338-2.386 0 0-6.952-.456-10.327 2.6C1.332 5.306.699 8.064.63 11.43.56 14.796.2 21.225 6.356 22.935l-.027 5.193c0 .294.046.494.214.536.12.029.301-.033.455-.187.984-.988 4.136-4.79 4.136-4.79 4.228.276 7.592-.559 7.954-.677.853-.274 5.467-.67 6.248-6.978.807-6.502-.296-10.94-2.462-12.795z" fill="#7360F2"/><path d="M16.498 11.15c-.076-1.54-.858-2.348-2.346-2.425m4.37 3.107c.03-1.434-.394-2.632-1.275-3.594-.884-.966-2.109-1.498-3.68-1.613" stroke="#fff" stroke-linecap="round" stroke-linejoin="round"/><path d="M20.592 12.633c-.019-2.489-.763-4.449-2.23-5.88-1.47-1.431-3.295-2.155-5.48-2.17" stroke="#fff" stroke-linecap="round" stroke-linejoin="round"/><path d="M14.246 16.413s.552.046.849-.32l.579-.728c.28-.361.954-.592 1.614-.224.495.282.975.589 1.44.919.437.322 1.335 1.071 1.337 1.071.428.36.527.89.236 1.45l-.003.011a6.043 6.043 0 01-1.205 1.485c-.006.002-.006.005-.01.008-.416.347-.824.544-1.225.592a.811.811 0 01-.179.011 1.629 1.629 0 01-.52-.08l-.014-.02c-.617-.173-1.648-.61-3.365-1.556a20.041 20.041 0 01-2.827-1.868c-.445-.351-.87-.728-1.272-1.128l-.043-.043-.042-.042-.043-.043-.043-.043c-.4-.402-.777-.827-1.128-1.272a20.063 20.063 0 01-1.868-2.827C5.567 10.05 5.131 9.02 4.957 8.401l-.019-.013a1.63 1.63 0 01-.08-.52c-.003-.06 0-.12.011-.18.05-.4.248-.808.593-1.225.003-.005.006-.005.008-.01a6.032 6.032 0 011.485-1.206l.012-.002c.558-.291 1.088-.193 1.449.232.002.003.75.9 1.07 1.339.33.464.638.945.92 1.44.368.66.137 1.336-.224 1.614l-.729.58c-.368.297-.32.848-.32.848s1.08 4.085 5.113 5.115z" fill="#fff"/></symbol><symbol fill="none" viewBox="0 0 26 29" id="contactviber3" xmlns="http://www.w3.org/2000/svg"><path d="M22.875 3.237c-.652-.592-3.466-2.36-9.338-2.386 0 0-6.952-.456-10.327 2.6C1.332 5.306.699 8.064.63 11.43.56 14.796.2 21.225 6.356 22.935l-.027 5.193c0 .294.046.494.214.536.12.029.301-.033.455-.187.984-.988 4.136-4.79 4.136-4.79 4.228.276 7.592-.559 7.954-.677.853-.274 5.467-.67 6.248-6.978.807-6.502-.296-10.94-2.462-12.795z" fill="#fd0100"/><path d="M16.498 11.15c-.076-1.54-.858-2.348-2.346-2.425m4.37 3.107c.03-1.434-.394-2.632-1.275-3.594-.884-.966-2.109-1.498-3.68-1.613" stroke="#fff" stroke-linecap="round" stroke-linejoin="round"/><path d="M20.592 12.633c-.019-2.489-.763-4.449-2.23-5.88-1.47-1.431-3.295-2.155-5.48-2.17" stroke="#fff" stroke-linecap="round" stroke-linejoin="round"/><path d="M14.246 16.413s.552.046.849-.32l.579-.728c.28-.361.954-.592 1.614-.224.495.282.975.589 1.44.919.437.322 1.335 1.071 1.337 1.071.428.36.527.89.236 1.45l-.003.011a6.043 6.043 0 01-1.205 1.485c-.006.002-.006.005-.01.008-.416.347-.824.544-1.225.592a.811.811 0 01-.179.011 1.629 1.629 0 01-.52-.08l-.014-.02c-.617-.173-1.648-.61-3.365-1.556a20.041 20.041 0 01-2.827-1.868c-.445-.351-.87-.728-1.272-1.128l-.043-.043-.042-.042-.043-.043-.043-.043c-.4-.402-.777-.827-1.128-1.272a20.063 20.063 0 01-1.868-2.827C5.567 10.05 5.131 9.02 4.957 8.401l-.019-.013a1.63 1.63 0 01-.08-.52c-.003-.06 0-.12.011-.18.05-.4.248-.808.593-1.225.003-.005.006-.005.008-.01a6.032 6.032 0 011.485-1.206l.012-.002c.558-.291 1.088-.193 1.449.232.002.003.75.9 1.07 1.339.33.464.638.945.92 1.44.368.66.137 1.336-.224 1.614l-.729.58c-.368.297-.32.848-.32.848s1.08 4.085 5.113 5.115z" fill="#fff"/></symbol><symbol viewBox="0 0 512 512" id="contactwatsapp1" xmlns="http://www.w3.org/2000/svg"><path d="M256.064 0h-.128C114.784 0 0 114.816 0 256c0 56 18.048 107.904 48.736 150.048l-31.904 95.104 98.4-31.456C155.712 496.512 204 512 256.064 512 397.216 512 512 397.152 512 256S397.216 0 256.064 0z" fill="#fd0100"/><path d="M405.024 361.504c-6.176 17.44-30.688 31.904-50.24 36.128-13.376 2.848-30.848 5.12-89.664-19.264-75.232-31.168-123.68-107.616-127.456-112.576-3.616-4.96-30.4-40.48-30.4-77.216s18.656-54.624 26.176-62.304c6.176-6.304 16.384-9.184 26.176-9.184 3.168 0 6.016.16 8.576.288 7.52.32 11.296.768 16.256 12.64 6.176 14.88 21.216 51.616 23.008 55.392 1.824 3.776 3.648 8.896 1.088 13.856-2.4 5.12-4.512 7.392-8.288 11.744-3.776 4.352-7.36 7.68-11.136 12.352-3.456 4.064-7.36 8.416-3.008 15.936 4.352 7.36 19.392 31.904 41.536 51.616 28.576 25.44 51.744 33.568 60.032 37.024 6.176 2.56 13.536 1.952 18.048-2.848 5.728-6.176 12.8-16.416 20-26.496 5.12-7.232 11.584-8.128 18.368-5.568 6.912 2.4 43.488 20.48 51.008 24.224 7.52 3.776 12.48 5.568 14.304 8.736 1.792 3.168 1.792 18.048-4.384 35.52z" fill="#333"/></symbol><symbol viewBox="0 0 512 512" id="contactwatsapp2" xmlns="http://www.w3.org/2000/svg"><path d="M256.064 0h-.128C114.784 0 0 114.816 0 256c0 56 18.048 107.904 48.736 150.048l-31.904 95.104 98.4-31.456C155.712 496.512 204 512 256.064 512 397.216 512 512 397.152 512 256S397.216 0 256.064 0z" fill="#4caf50"/><path d="M405.024 361.504c-6.176 17.44-30.688 31.904-50.24 36.128-13.376 2.848-30.848 5.12-89.664-19.264-75.232-31.168-123.68-107.616-127.456-112.576-3.616-4.96-30.4-40.48-30.4-77.216s18.656-54.624 26.176-62.304c6.176-6.304 16.384-9.184 26.176-9.184 3.168 0 6.016.16 8.576.288 7.52.32 11.296.768 16.256 12.64 6.176 14.88 21.216 51.616 23.008 55.392 1.824 3.776 3.648 8.896 1.088 13.856-2.4 5.12-4.512 7.392-8.288 11.744-3.776 4.352-7.36 7.68-11.136 12.352-3.456 4.064-7.36 8.416-3.008 15.936 4.352 7.36 19.392 31.904 41.536 51.616 28.576 25.44 51.744 33.568 60.032 37.024 6.176 2.56 13.536 1.952 18.048-2.848 5.728-6.176 12.8-16.416 20-26.496 5.12-7.232 11.584-8.128 18.368-5.568 6.912 2.4 43.488 20.48 51.008 24.224 7.52 3.776 12.48 5.568 14.304 8.736 1.792 3.168 1.792 18.048-4.384 35.52z" fill="#fafafa"/></symbol><symbol viewBox="0 0 512 512" id="contactwatsapp3" xmlns="http://www.w3.org/2000/svg"><path d="M256.064 0h-.128C114.784 0 0 114.816 0 256c0 56 18.048 107.904 48.736 150.048l-31.904 95.104 98.4-31.456C155.712 496.512 204 512 256.064 512 397.216 512 512 397.152 512 256S397.216 0 256.064 0z" fill="#fd0100"/><path d="M405.024 361.504c-6.176 17.44-30.688 31.904-50.24 36.128-13.376 2.848-30.848 5.12-89.664-19.264-75.232-31.168-123.68-107.616-127.456-112.576-3.616-4.96-30.4-40.48-30.4-77.216s18.656-54.624 26.176-62.304c6.176-6.304 16.384-9.184 26.176-9.184 3.168 0 6.016.16 8.576.288 7.52.32 11.296.768 16.256 12.64 6.176 14.88 21.216 51.616 23.008 55.392 1.824 3.776 3.648 8.896 1.088 13.856-2.4 5.12-4.512 7.392-8.288 11.744-3.776 4.352-7.36 7.68-11.136 12.352-3.456 4.064-7.36 8.416-3.008 15.936 4.352 7.36 19.392 31.904 41.536 51.616 28.576 25.44 51.744 33.568 60.032 37.024 6.176 2.56 13.536 1.952 18.048-2.848 5.728-6.176 12.8-16.416 20-26.496 5.12-7.232 11.584-8.128 18.368-5.568 6.912 2.4 43.488 20.48 51.008 24.224 7.52 3.776 12.48 5.568 14.304 8.736 1.792 3.168 1.792 18.048-4.384 35.52z" fill="#fff"/></symbol><symbol viewBox="0 0 3 10" shape-rendering="geometricPrecision" text-rendering="geometricPrecision" image-rendering="optimizeQuality" fill-rule="evenodd" clip-rule="evenodd" id="exclainicon" xmlns="http://www.w3.org/2000/svg"><path fill="red" d="M2 7H1L0 2V0h2l1 1v1L2 7zM1 8h1v2H1L0 9s1 0 1-1z"/></symbol><symbol viewBox="0 0 69 48" shape-rendering="geometricPrecision" text-rendering="geometricPrecision" image-rendering="optimizeQuality" fill-rule="evenodd" clip-rule="evenodd" id="gears" xmlns="http://www.w3.org/2000/svg"><defs><style>.anfil0{fill:red}</style></defs><g id="anLayer_x0020_1"><g id="an_985523920"><path class="anfil0" fill="red" d="M51 8c-8-3-18 1-22 10-4 8 0 18 9 22s19-1 23-9c3-9-1-19-10-23zm-2-8h-9c0 3-1 5-3 6s-4 0-6-2c-2 2-5 4-6 7 1 1 2 3 1 6-1 2-3 3-5 2-1 4-1 7 0 10 2-1 4 1 5 3s0 4-1 6c1 2 4 5 6 6 2-2 4-2 6-1 2 0 3 3 3 5 3 1 6 1 9 0 0-2 1-5 3-5 2-1 5-1 6 1 3-1 5-4 7-6-2-2-3-4-2-6s3-4 5-3c1-3 1-6 0-10-2 1-4 0-5-2-1-3 0-5 2-6-2-3-4-5-7-7-1 2-4 3-6 2s-3-3-3-6z"/><path class="anfil0" fill="red" d="M23 7c-6 1-12 4-15 11-3 8 1 18 10 22 1 1 3 1 5 1l6 6v1c-3 1-6 1-10 0 1-2 0-5-2-5-3-1-5-1-6 1-3-1-5-4-7-6 2-2 3-4 2-6s-3-4-6-3V19c3 1 5 0 6-2 1-3 0-5-2-6 2-3 4-5 7-7 1 2 3 3 6 2 2-1 3-3 2-6h10v2c-2 1-4 3-6 5zm14 29c1-2 2-3 3-5 3-7 1-13-3-18 2-2 5-2 7-3v1c-2 1-2 3-1 6 0 2 3 3 5 2 1 4 1 7 0 10-2-1-5 1-5 3-1 2-1 4 1 6-1 0-3 0-5-1 0 0-1-1-2-1z"/></g></g></symbol><symbol viewBox="0 0 268 268" shape-rendering="geometricPrecision" text-rendering="geometricPrecision" image-rendering="optimizeQuality" fill-rule="evenodd" clip-rule="evenodd" id="icon1" xmlns="http://www.w3.org/2000/svg"><path d="M84 178h100v11c0 5-4 9-9 9H93c-5 0-9-4-9-9v-11zm50-68c13 0 24 11 24 24 0 14-11 25-24 25s-24-11-24-25c0-13 11-24 24-24zm0 5c11 0 19 9 19 19 0 11-8 20-19 20s-19-9-19-20c0-10 8-19 19-19zM84 96h100v76H84V96zm50 9c16 0 29 13 29 29 0 17-13 30-29 30s-29-13-29-30c0-16 13-29 29-29zM93 70h82c5 0 9 4 9 9v12H84V79c0-5 4-9 9-9zm61 15c-2-2-2-4-1-6s4-3 6-2l-5 8zm6-7c2 1 3 4 2 6-2 2-4 3-6 2l4-8zm13 0c2 1 3 4 1 6-1 2-3 3-5 2l4-8zm-6 7c-2-2-2-4-1-6s3-3 6-2l-5 8zm-70-8h26v7H97v-7z" fill="#333"/><path d="M98 48c48-20 103 3 122 50 20 48-3 103-50 122-48 20-103-3-122-50-20-48 3-103 50-122zm10-44c18-3 35-3 52 0-3 13 4 25 15 30 12 5 26 1 32-10 15 10 27 22 37 37-10 6-15 20-10 32 5 11 17 18 30 15 3 18 3 35 0 52-13-3-25 4-30 15-5 12-1 26 10 32-10 15-22 27-37 37-6-10-20-15-32-10-11 5-18 17-15 30-18 3-35 3-52 0 3-13-4-25-15-30-12-5-26-1-32 10-15-10-27-22-37-37 11-6 15-20 10-32-5-11-17-18-30-15-3-18-3-35 0-52 13 3 25-4 30-15 5-12 1-26-10-32 10-15 22-27 37-37 6 11 20 15 32 10 11-5 18-17 15-30z" fill="none" stroke="#333" stroke-width="3.84"/></symbol><symbol viewBox="0 0 480 480" shape-rendering="geometricPrecision" text-rendering="geometricPrecision" image-rendering="optimizeQuality" fill-rule="evenodd" clip-rule="evenodd" id="icon10" xmlns="http://www.w3.org/2000/svg"><path fill="none" stroke="#333" stroke-width="7.722" d="M194 8c31-6 62-6 92 0-4 22 7 45 28 53 21 9 45 1 57-17 26 17 48 39 65 65-18 12-26 36-17 57 8 21 31 32 53 28 6 31 5 62-1 92-21-4-44 7-52 28-9 21-1 45 17 57-17 26-39 48-65 65-12-18-36-26-57-17-21 8-33 31-28 53-31 6-62 5-92-1 4-21-7-44-28-52-21-9-45-1-57 17-26-17-48-39-65-65 18-12 26-36 17-57-8-21-31-33-53-28-6-31-6-62 0-92 22 4 45-7 53-28 9-21 1-45-17-57 17-26 39-48 65-65 12 18 36 26 57 17 21-8 32-31 28-53zm-22 68c91-38 195 5 232 96 38 91-5 195-96 232-91 38-195-5-232-96-38-91 5-195 96-232z"/><path fill="#333" d="M185 238c1-4 0-25 0-30 0-8 0-8-9-7-4 0-13 11-16 14l-15 15c-4 3-7 5-7 8 1 0 44 1 47 0zm14-50c0-5-1-11 2-15 1-2 0-1 1-2 3-3 6-3 10-4 32 0 67 1 99 0 40 0 43-5 43 24 0 10 1 59 0 65H115c1-7-1-10 3-16 2-4 17-18 22-23l2-2 4-4 8-7c1-1 1-2 2-3 17-16 9-13 43-13zm128 112c-3-26-37-35-52-19-3 3-4 3-7 8-2 4-2 6-4 11h-62c0-16-28-41-53-19-3 3-5 5-6 9-1 1-2 3-3 5 0 3 0 4-2 5-10 0-19 1-22-8-2-6 0-22-1-29 5-1 51 0 60 0 20 0 174-1 179 0 1 5 1 27-1 31-4 8-16 6-26 6zm-154-7c-7-2-13 3-14 8-2 7 3 14 9 15 15 3 21-19 5-23zm21 17c0 2-2 6-4 8-2 4-8 8-13 10-3 0-8 1-11 0-4-1-7-2-9-4-20-13-9-48 19-43 13 2 21 15 18 29zm104-17c-7-2-12 3-14 8-1 7 3 14 9 15 15 4 21-19 5-23zm-25 17c-7-27 28-40 42-20 16 22-10 49-33 34-4-3-8-8-9-14z"/></symbol><symbol viewBox="0 0 1313 1313" shape-rendering="geometricPrecision" text-rendering="geometricPrecision" image-rendering="optimizeQuality" fill-rule="evenodd" clip-rule="evenodd" id="icon11" xmlns="http://www.w3.org/2000/svg"><path fill="none" stroke="#333" stroke-width="21.134" d="M531 23c85-17 170-16 252 0-13 59 18 121 76 145s124 2 157-48c69 46 130 106 178 178-51 33-72 98-48 156s85 89 144 77c17 85 17 170 0 252-59-12-120 18-144 76s-3 124 48 157c-46 69-107 130-178 178-33-51-99-72-157-48s-89 85-76 144c-85 17-171 17-252 0 12-59-19-120-77-144s-123-3-156 48c-70-46-131-107-179-178 51-33 73-99 49-157s-86-89-145-76C6 698 7 612 23 531c59 12 121-19 145-77s2-123-48-156c46-70 106-131 178-179 33 51 98 73 156 49s89-86 77-145zm-60 184c248-102 532 16 635 264s-15 532-263 635-533-15-636-263c-102-248 16-533 264-636z"/><path d="M890 845c0-6-1-10-3-16-1-3-1-3-3-6-15-18-39-20-55-4-10 10-14 36 0 50 15 16 37 15 51 1 6-5 10-14 10-25zM499 539c6-2 29-27 34-33l77-76c8 5 17 25 17 38 0 22 0 59-9 77l61 55c3 3 6 7 9 10 5 3 6 5 11 9 4 4 6 5 10 9l50 46c7 7 14 12 20 19l101 93c4 4 6 7 10 10 14 13 42 34 42 55 0 22-5 33-21 50-7 8-27 22-39 22-10 0-16 1-24-4-3-2-4-3-6-5-15-11-15-13-28-26-8-8-13-15-21-22l-51-56c-3-4-7-7-10-11l-46-51c-2-3-2-3-5-6l-51-56-4-6-52-56c-20-22-6-12-39-13l-67 2c-16 0-27-18-34-28-32-38-51-89-51-139 0-8 1-19 4-24 10 7 30 32 42 43 5 6 9 10 14 15l42 43c4 4 13 10 14 16zm142 184l-28 32c-20 20-47 53-68 74l-39 42c-4 5-16 17-21 21-12-8-41-39-55-53-5-5-14-12-18-18 3-3 7-6 10-10l152-137c17-15 12-11 42 18 4 5 22 25 25 31zm289-320c0 2-64 88-69 90-5 3-14 5-19 7-15 6-32 25-44 37l-80 78c-6-4-10-7-15-12-5-3-11-10-14-14 5-6 20-20 26-27 10-9 17-18 27-27 17-17 55-50 63-71 11-28-2-15 37-44l46-35c5-4 10-9 16-12 5 4 9 9 14 14 3 3 12 10 12 16zm-330 16l-62 62c-7-5-22-21-29-28-10-11-68-66-71-75-2-5 2-3 8-3 5-1 11-1 16-2h13c2 0 4 1 7 1 20 3 16-4 59 10 13 4 22 9 33 14 7 4 22 15 26 21zM481 898c-7 5-14 9-21 13-7 5-14 9-22 13-2-3-3-4-7-7-7-5-48-47-50-50l24-37c8 0 16 7 22 14l54 54z"/></symbol><symbol viewBox="0 0 277 277" shape-rendering="geometricPrecision" text-rendering="geometricPrecision" image-rendering="optimizeQuality" fill-rule="evenodd" clip-rule="evenodd" id="icon12" xmlns="http://www.w3.org/2000/svg"><path fill="none" stroke="#333" stroke-width="4.462" d="M112 5c18-4 36-4 53 0-2 12 4 25 16 30 13 5 26 1 33-10 15 10 28 23 38 38-11 7-15 21-10 33s18 19 30 16c4 18 4 36 0 53-12-2-25 4-30 16-5 13-1 26 10 33-10 15-22 28-38 38-7-11-20-15-33-10-12 5-18 18-16 30-18 4-36 4-53 0 3-12-4-25-16-30s-26-1-33 10c-15-10-28-22-38-38 11-7 15-20 10-33-5-12-18-18-30-16-4-18-4-36 0-53 12 3 25-4 30-16s1-26-10-33c10-15 23-28 38-38 7 11 21 15 33 10s19-18 16-30zM99 44c53-22 113 3 134 55 22 53-3 113-55 134-52 22-113-3-134-55-22-52 3-113 55-134z"/><path fill="#333" d="M88 80h79v79l-5 7c-4-4-8-7-12-11h6v-9H99v9h23l2 4 3 3H99v10h34c3 4 6 9 9 14H88V80zm51 71c-7 4-11 6-11 6 17 23 20 33 31 52l15-9 45-81c-16 5-24 7-24 7-22 31-33 47-33 47-23-23-23-22-23-22zM99 96h57v9H99v-9zm0 17h57v9H99v-9zm0 16h57v10H99v-10z"/></symbol><symbol viewBox="0 0 676 676" shape-rendering="geometricPrecision" text-rendering="geometricPrecision" image-rendering="optimizeQuality" fill-rule="evenodd" clip-rule="evenodd" id="icon2" xmlns="http://www.w3.org/2000/svg"><path d="M222 260h233v-61c0-13-11-23-23-23H244c-12 0-22 10-22 23v61zm37 118c0-2 6-1 6 0 2 8 3 15 4 23 0 1 1 2 1 3 1 3 2 1 2 3 1 1 1 3 1 4 1 4 1 8 1 12-1 3-1 7-2 11 0 1-1 0-2 2 0 1 0 2-1 4 0 7-2 15-4 23 0 1-6 1-6 0 1-26 0-53 0-85zm143 0c0-2 7-1 7 0 2 8 3 15 4 23 0 1 0 2 1 3 1 3 1 1 2 3 1 1 1 3 1 4v12c0 3 0 7-1 11 0 1-1 0-2 2 0 1-1 2-1 4-1 7-2 15-4 23 0 1-7 1-7 0 2-26 1-53 0-85zm3 83c3-28 2-55 0-82h1c3 27 4 54 0 82h-1zm-26-83c0-2 6-1 6 0 2 8 3 15 4 23 0 1 0 2 1 3 1 3 1 1 2 3 1 1 1 3 1 4v12c0 3 0 7-1 11 0 1-1 0-2 2 0 1-1 2-1 4-1 7-2 15-4 23 0 1-7 1-6 0 1-26 0-53 0-85zm2 83c3-28 2-55 0-82h2c2 27 3 54 0 82h-2zm-26-83c0-2 6-1 6 0 2 8 3 15 4 23 0 1 0 2 1 3 1 3 2 1 2 3 1 1 1 3 1 4 0 4 1 8 0 12 0 3 0 7-1 11 0 1-1 0-2 2 0 1-1 2-1 4-1 7-2 15-4 23 0 1-6 1-6 0 1-26 0-53 0-85zm2 83c3-28 2-55 0-82h2c2 27 3 54 0 82h-2zm-26-83c0-2 6-1 6 0 2 8 3 15 4 23 0 1 0 2 1 3 1 3 2 1 2 3 1 1 1 3 1 4 0 4 1 8 0 12 0 3 0 7-1 11 0 1-1 0-2 2 0 1-1 2-1 4-1 7-2 15-4 23 0 1-6 1-6 0 1-26 0-53 0-85zm2 83c3-28 3-55 0-82h2c2 27 3 54 0 82h-2zm-26-83c0-2 6-1 6 0 2 8 3 15 4 23 0 1 1 2 1 3 1 3 2 1 2 3 1 1 1 3 1 4 0 4 1 8 0 12 0 3 0 7-1 11 0 1-1 0-2 2 0 1-1 2-1 4-1 7-2 15-4 23 0 1-6 1-6 0 1-26 0-53 0-85zm2 83c3-28 3-55 0-82h2c2 27 3 54 0 82h-2zm-26-83c0-2 6-1 6 0 2 8 3 15 4 23 0 1 1 2 1 3 1 3 2 1 2 3 1 1 1 3 1 4 0 4 1 8 1 12-1 3-1 7-2 11 0 1-1 0-2 2 0 1-1 2-1 4 0 7-2 15-4 23 0 1-6 1-6 0 1-26 0-53 0-85zm2 83c3-28 3-55 0-82h2c2 27 3 54 0 82h-2zm-24 0c3-28 3-55 0-82h2c2 27 3 54 0 82h-2zm117-148h41v7c6 0 11 5 11 11s-5 10-11 10h-1c-1 5-5 8-10 8v3h-20v-3c-5-1-10-6-10-12v-24zm41 10v15c3-1 5-4 5-7 0-4-2-7-5-8zm-104-10h41v7c6 0 10 5 10 11s-4 10-10 10h-1c-2 5-5 8-10 8v3h-20v-3c-6-1-10-6-10-12v-24zm41 10v15c3-1 5-4 5-7 0-4-2-7-5-8zm-104-10h41v7c6 0 10 5 10 11s-4 10-10 10h-1c-2 5-5 8-10 8v3h-20v-3c-6-1-10-6-10-12v-24zm41 10v15c3-1 5-4 5-7 0-4-2-7-5-8zm-27-28h144c12 0 23 11 23 23v42H244v-42c0-12 10-23 22-23zm12 195v10h-21v-10h-13c-12 0-22-10-22-22V275h233v193c0 12-11 22-23 22h-13v10h-21v-10H278zm155-119v77c0 12-11 22-23 22H266c-12 0-22-10-22-22v-77h189zM274 206c5 5 7 13 3 20-3 6-11 9-18 7l15-27zm112 0h42v8h-42v-8zm0 16h42v8h-42v-8zm-30-16c5 5 7 13 3 20-3 6-11 9-18 7l15-27zm-21 24c-5-5-7-13-3-20 4-6 11-9 18-7l-15 27zm-20-24c5 5 7 13 3 20-3 6-11 9-18 7l15-27zm-21 24c-5-5-7-13-3-20 4-6 11-9 18-7l-15 27zm-41 0c-5-5-7-13-3-20 3-6 11-9 18-7l-15 27z" fill="#333"/><path d="M248 120c120-49 258 8 308 128 49 120-8 258-128 308-120 49-258-8-308-128-49-120 8-258 128-308zm25-109c44-8 88-8 130 0-6 31 10 63 40 75 29 12 63 1 80-25 36 24 67 55 92 92-26 17-37 51-25 81 13 30 44 46 75 39 9 44 8 88 0 130-31-6-62 10-75 40-12 29-1 63 25 80-24 36-55 67-92 92-17-26-51-37-81-25-29 13-45 44-39 75-44 9-88 8-130 0 6-31-10-62-39-75-30-12-64-1-81 25-36-24-67-55-92-92 26-17 37-51 25-81-12-29-44-45-75-39-8-44-8-88 0-130 31 6 63-10 75-39 12-30 1-64-25-81 24-36 55-67 92-92 17 26 51 37 81 25s46-44 39-75z" fill="none" stroke="#333" stroke-width="9.695"/></symbol><symbol viewBox="0 0 1286 1286" shape-rendering="geometricPrecision" text-rendering="geometricPrecision" image-rendering="optimizeQuality" fill-rule="evenodd" clip-rule="evenodd" id="icon3" xmlns="http://www.w3.org/2000/svg"><path d="M461 524h363v333H461V524zm35-189h294c19 0 34 16 34 34v133H461V369c0-18 16-34 35-34zm-3 114h76v18h-76v-18zm-32 430h363v38c0 18-15 34-34 34H496c-19 0-35-16-35-34v-38zm50-312v153h-18V567h18z" fill="#333"/><path d="M472 229c228-95 490 14 585 243 94 228-14 490-243 585-228 94-490-14-585-243-95-228 14-490 243-585zm47-208c84-16 167-16 248 1-12 58 18 118 75 141 56 24 121 3 153-47 68 46 128 104 175 175-50 32-71 97-47 153 23 57 83 88 141 75 17 84 16 167 0 248-58-12-118 18-142 75-23 56-2 121 48 153-46 68-105 128-175 175-33-50-97-71-153-47-57 23-88 83-75 141-84 17-168 16-248 0 12-58-18-118-75-142-57-23-121-2-153 48-68-46-128-105-175-175 50-33 71-97 47-153-23-57-84-88-142-75-16-84-16-168 1-248 58 12 118-18 141-75 24-57 3-121-47-153 46-68 104-128 175-175 32 50 97 71 153 47 57-23 88-84 75-142z" fill="none" stroke="#333" stroke-width="18.421"/></symbol><symbol viewBox="0 0 330 330" shape-rendering="geometricPrecision" text-rendering="geometricPrecision" image-rendering="optimizeQuality" fill-rule="evenodd" clip-rule="evenodd" id="icon4" xmlns="http://www.w3.org/2000/svg"><path d="M140 154c-10 9-10 43-7 64 1 2 3 2 6 2h69c4 0 7-1 7-5 6-26 4-46-6-62 11-4 19-3 22 5 3 9 0 22-7 39-1 2 0 4 3 5 2 2 3 0 4-2 11-27 12-45 1-55-5-4-8-6-11-7h-2c-10 7-17 9-28 9-23-1-43 0-55 0-1 0-3 1-1 2 2 3 3 4 5 5zm8 1c-6 7-10 16-10 26 4 2 14 3 30 1 19-1 34-1 44 1-1-13-4-22-10-28h-54zm9-16c-2 0-3-1-5-4-5-7-10-21-15-44 23 0 47 0 73 1-5 21-11 36-17 43-1 2-2 4-4 4-11 1-22 0-32 0zm-27-48c2 9 5 19 10 34l-6 6c-16 23-21 54-15 95h95c2 0 3 1 3 3v11c0 2-3 4-4 4H96c-2 0-6-3-6-6V88c0-1 2-2 3-2l37 5z" fill="#333"/><path d="M121 59c59-25 126 3 150 62s-4 126-62 150c-59 24-126-4-150-62-25-59 3-126 62-150zm12-54c22-4 43-4 64 1-3 14 4 30 19 36 14 6 31 1 39-12 18 11 33 27 45 45-13 8-18 24-12 39s21 22 36 19c5 22 4 43 0 64-15-3-30 4-36 19-6 14-1 31 12 39-12 18-27 33-45 45-8-13-25-18-39-12-15 6-23 21-19 36-22 5-43 4-64 0 3-15-4-30-19-36s-31-1-39 12c-18-12-33-27-45-45 12-8 18-25 12-39-6-15-22-23-37-19-4-22-4-43 1-64 14 3 30-4 36-19s1-31-12-39c11-18 27-33 45-45 8 12 24 18 39 12s22-22 19-37z" fill="none" stroke="#333" stroke-width="4.725"/></symbol><symbol viewBox="0 0 240 240" shape-rendering="geometricPrecision" text-rendering="geometricPrecision" image-rendering="optimizeQuality" fill-rule="evenodd" clip-rule="evenodd" id="icon5" xmlns="http://www.w3.org/2000/svg"><defs><style>.avstr0{stroke:#333;stroke-width:3.64203}.avfil0{fill:none}</style></defs><g id="avLayer_x0020_1"><g id="av_968487232"><circle class="avfil0 avstr0" stroke="#333" stroke-width="3.642" fill="none" cx="120" cy="120" r="101"/><circle class="avfil0 avstr0" stroke="#333" stroke-width="3.642" fill="none" cx="120" cy="120" r="118"/><path fill="#333" d="M124 135c1 2 2 4 0 6s-5 2-6 0c-2-1-2-4 0-6 1-2 4-2 6 0zm36-29l-2-3-13 7 1 4 14-8zm-80 0l2-3 13 7-2 4-13-8zm64-15l-3-2-8 13 3 2 8-13zm-48 0l3-2 8 13-4 2-7-13zm72 62c3-7 5-14 5-22 0-4-1-7-1-10l-45 24c-4 2-9 3-13 0-3-4-3-10 0-13 2-2 5-2 8-3l50-9c-5-24-27-42-52-42-29 0-53 24-53 53 0 8 2 15 5 22 32-4 64-5 96 0zm-50-69h4v15h-4V84zm2-18c51 0 83 58 55 101-36-6-73-6-110 0-28-43 4-101 55-101z"/></g></g></symbol><symbol viewBox="0 0 611 611" shape-rendering="geometricPrecision" text-rendering="geometricPrecision" image-rendering="optimizeQuality" fill-rule="evenodd" clip-rule="evenodd" id="icon6" xmlns="http://www.w3.org/2000/svg"><defs><style>.awstr0{stroke:#333;stroke-width:9.2752}.awfil0{fill:none}.awfil1{fill:#333}</style></defs><g id="awLayer_x0020_1"><g id="aw_963367552"><circle class="awfil0 awstr0" stroke="#333" stroke-width="9.275" fill="none" cx="305" cy="305" r="258"/><circle class="awfil0 awstr0" stroke="#333" stroke-width="9.275" fill="none" cx="305" cy="305" r="301"/><path class="awfil1" fill="#333" d="M210 163h163c7 0 14 8 14 14v202l-1 1c-7-7-14-14-21-20h1v-23h-23v3c-3-2-7-2-10 0s-5 3-8 5v-8h-23v23h2l5 6c3 4 6 8 9 13h-16v22h23v-12c9 13 17 27 25 42H198V179c0-7 6-16 12-16zm19 25h127c4 0 10 5 10 9v21c0 4-4 10-9 10H230c-5 0-11-4-11-9v-22c0-4 5-9 10-9zm-9 65h23v23h-23v-23zm123 0h23v23h-23v-23zm-41 0h23v23h-23v-23zm-41 0h23v23h-23v-23zm-41 42h23v23h-23v-23zm123 0h23v23h-23v-23zm-41 0h23v23h-23v-23zm-41 0h23v23h-23v-23zm-41 42h23v23h-23v-23zm41 0h23v23h-23v-23zm-41 42h23v22h-23v-22zm41 0h23v22h-23v-22z"/><path class="awfil1" fill="#333" d="M338 348c-14 8-22 12-22 12 36 49 42 69 65 110 21-14 32-20 32-20 61-112 92-168 92-168-33 10-49 15-49 15-46 65-69 97-69 97-48-47-49-46-49-46z"/></g></g></symbol><symbol viewBox="0 0 1117 1117" shape-rendering="geometricPrecision" text-rendering="geometricPrecision" image-rendering="optimizeQuality" fill-rule="evenodd" clip-rule="evenodd" id="icon7" xmlns="http://www.w3.org/2000/svg"><defs><style>.axstr0{stroke:#333;stroke-width:16.9655}.axfil0{fill:none}</style></defs><g id="axLayer_x0020_1"><g id="ax_963375008"><circle class="axfil0 axstr0" stroke="#333" stroke-width="16.965" fill="none" cx="559" cy="559" r="472"/><circle class="axfil0 axstr0" stroke="#333" stroke-width="16.965" fill="none" cx="559" cy="559" r="550"/><path fill="#333" d="M669 636c-27 15-41 23-41 23 65 90 76 126 118 200 39-24 59-36 59-36 112-205 169-307 169-307-60 19-91 28-91 28-83 118-125 178-125 178-88-87-89-86-89-86zm-278-68l14-14c34 35 81 56 134 56s100-21 134-56l14 14c31 31 87 37 80 80l-5 39-6 8c-21-20-42-41-64-61-3-4-7-7-11-10-7-5-15-6-22-2-13 8-26 15-39 22l-16 10 11 15c29 40 53 79 76 123 5 9 9 18 14 27-107 57-364 36-377-54l-17-117c-7-43 49-49 80-80zm115 70l16-20h34l17 20-14 34h-40l-13-34zm65 159l-12-110h-40l-12 110 17 28h30l17-28zm-32-515c80 0 145 66 145 147s-65 147-145 147-144-66-144-147 64-147 144-147z"/></g></g></symbol><symbol viewBox="0 0 291 291" shape-rendering="geometricPrecision" text-rendering="geometricPrecision" image-rendering="optimizeQuality" fill-rule="evenodd" clip-rule="evenodd" id="icon8" xmlns="http://www.w3.org/2000/svg"><defs><style>.aystr0{stroke:#333;stroke-width:4.42289}.ayfil0{fill:none}</style></defs><g id="ayLayer_x0020_1"><g id="ay_968490528"><circle class="ayfil0 aystr0" stroke="#333" stroke-width="4.423" fill="none" cx="146" cy="146" r="123"/><circle class="ayfil0 aystr0" stroke="#333" stroke-width="4.423" fill="none" cx="146" cy="146" r="143"/><path fill="#333" d="M141 96c1 3-1 12-2 15-2 5-3 10-5 14s-5 9-10 9c-7 0-19-11-20-16 2-2 3-5 3-7 0-6-4-10-9-10s-10 4-10 10c0 5 5 9 10 9v1l1 2c0 4 0 8-1 12s-2 9-8 10c-6 0-9-2-13-4-2-1-7-4-10-6 1-1 2-3 2-5 0-5-5-9-10-9s-9 4-9 9c0 6 4 10 9 10 2 0 3-1 4-1 1 2 3 6 3 8 8 17 15 35 22 51l4 9c4 0 8-2 13-3 4 0 8-1 13-2 21-2 49-2 71 1l13 2s0-1 1-2c4-12 17-44 21-55l6-12c1 1 1 1 2 1 5 0 10-5 10-10s-5-9-10-9-9 4-9 9c0 2 0 4 1 5-2 2-8 6-9 6-6 4-13 8-19 2-4-4-4-15-3-21 5 0 9-4 9-10 0-5-5-9-10-9s-9 4-9 9c0 3 1 6 3 8-1 4-8 10-10 12-10 8-16 1-20-8-2-4-7-21-8-25 3-2 6-5 6-9 0-5-4-10-10-10-5 0-9 5-9 10 0 4 3 7 6 9zm-47 67c3 8 6 15 9 23 4-1 8-2 13-2 23-3 50-2 73 1 2-5 4-11 6-16 1-2 3-5 4-8-6 0-12-3-16-8-2-1-3-3-4-5-12 6-24 2-33-8-5 7-12 12-22 12-3 0-8 0-12-2-3 7-9 11-18 13z"/></g></g></symbol><symbol viewBox="0 0 203 203" shape-rendering="geometricPrecision" text-rendering="geometricPrecision" image-rendering="optimizeQuality" fill-rule="evenodd" clip-rule="evenodd" id="icon9" xmlns="http://www.w3.org/2000/svg"><defs><style>.azfil0{fill:#333}</style></defs><g id="azLayer_x0020_1"><g id="az_968529792"><path class="azfil0" fill="#333" d="M92 57l56 14-18 75-38-9c-1-2-1-3-1-4-2-3-4-7-8-8h-7l16-68zm6 13l40 10-2 7-40-10 2-7zm-3 12l40 10-2 7-40-10 2-7zm-3 12l40 10-1 7-41-10 2-7zm-3 12l40 10-1 7-41-10 2-7zm-3 12l40 9-1 7-41-10 2-6z"/><path class="azfil0" fill="#333" d="M88 143c-7 10-17 4-23-1-6-7-8-12-12-22-2-6-8-34-2-39 4-3 7-4 13-3 4 1 7 14 4 17l-6 5c-1 7 4 25 9 28 1 1 4 0 10 1s9 12 7 14z"/><path fill="none" stroke="#333" stroke-width="3.265" d="M82 4c13-3 26-3 39 0-2 9 3 18 12 22s19 0 24-8c11 8 20 17 27 28-7 5-11 15-7 24s13 14 22 12c3 13 3 26 0 39-9-2-18 3-22 12s0 19 7 24c-7 11-16 20-27 27-5-7-15-11-24-7s-14 13-12 22c-13 3-26 3-39 0 2-9-3-18-12-22s-19 0-24 7c-11-7-20-16-28-27 8-5 12-15 8-24s-13-14-22-12c-3-13-3-26 0-39 9 2 18-3 22-12s0-19-8-24c8-11 17-20 28-28 5 8 15 12 24 8S84 13 82 4zm-9 28c38-16 82 2 98 41 16 38-2 82-41 98-38 16-82-2-98-41-16-38 2-82 41-98z"/></g></g></symbol><symbol viewBox="0 0 84 102" shape-rendering="geometricPrecision" text-rendering="geometricPrecision" image-rendering="optimizeQuality" fill-rule="evenodd" clip-rule="evenodd" id="logoicon" xmlns="http://www.w3.org/2000/svg"><path d="M0 31h60v1h-3v2c0 1-1 3-2 3s-3 0-3-2l-1-2-2 1c-1 1-2 1-2 2l-2 1 1 2c1 1 1 2 0 3s-3 1-4 0l-1-1-1 2-2 2-1 2 2 1c2 0 2 2 2 3s-2 2-3 2h-2v7l2-1c1 0 3 1 3 2 0 2 0 3-2 4h-2l1 2c1 1 1 2 2 3l1 1 1-1c2-1 3-1 4 0s1 3 0 4l-1 2 2 1s1 1 2 1l2 1 1-2c0-1 2-2 3-2 1 1 2 2 2 4v2h3v6H0V31zm56 33c-3-2-4-5-4-8s1-6 4-7c1-1 2-1 4-1v17c-2 0-3-1-4-1zM6 0h49c3 0 5 3 5 6v22H0V6c0-3 3-6 6-6zM5 19h13v3H5v-3zM0 90h60v6c0 3-2 6-5 6H6c-3 0-6-3-6-6v-6zm8-52v26H5V38h3z" fill="red"/><path d="M60 79h-1c0-2-1-5-4-5-2-1-4 0-5 3-1-1-2-1-2-2 1-2 1-4-1-6-1-2-4-2-6 0 0-1-1-2-1-3 2 0 3-3 3-5-1-2-3-4-5-3-1-1-1-2 0-3 2 0 4-1 5-3 0-3-1-5-3-6 0-1 1-1 1-2 2 1 5 1 6-1 2-1 2-4 1-6 0 0 1-1 2-1 1 2 3 3 5 3 3-1 4-3 4-5h3c-1 2 1 4 3 5 2 0 4-1 5-3 1 0 2 1 3 1-2 2-2 5 0 6 2 2 4 2 6 1 1 1 1 1 1 2-2 1-3 3-2 6 0 2 2 3 5 3v3c-3-1-5 1-5 3-1 2 0 5 2 5 0 1 0 2-1 3-2-2-4-2-6 0s-2 4 0 6c-1 1-2 1-3 1-1-2-3-3-5-2-2 0-4 3-3 5h-2zm0-33c-4 0-9 3-10 8-2 6 3 13 10 13 5 0 9-3 10-8 2-7-3-13-10-13z" fill="none" stroke="#333" stroke-width="1.456"/></symbol><symbol viewBox="0 0 11 13" shape-rendering="geometricPrecision" text-rendering="geometricPrecision" image-rendering="optimizeQuality" fill-rule="evenodd" clip-rule="evenodd" id="map" xmlns="http://www.w3.org/2000/svg"><path d="M5 0c3 0 6 2 6 5s-2 4-6 8C2 9 0 8 0 5s2-5 5-5zm0 3c2 0 3 1 3 3 0 1-1 2-3 2-1 0-2-1-2-2 0-2 1-3 2-3z" fill="red"/></symbol><symbol viewBox="0 0 384 384" id="phoneicon" xmlns="http://www.w3.org/2000/svg"><path d="M353.188 252.052c-23.51 0-46.594-3.677-68.469-10.906-10.719-3.656-23.896-.302-30.438 6.417l-43.177 32.594c-50.073-26.729-80.917-57.563-107.281-107.26l31.635-42.052c8.219-8.208 11.167-20.198 7.635-31.448-7.26-21.99-10.948-45.063-10.948-68.583C132.146 13.823 118.323 0 101.333 0h-70.52C13.823 0 0 13.823 0 30.813 0 225.563 158.438 384 353.188 384c16.99 0 30.813-13.823 30.813-30.813v-70.323c-.001-16.989-13.824-30.812-30.813-30.812z" fill="red" data-original="#000000" xmlns="http://www.w3.org/2000/svg"/></symbol><symbol viewBox="0 0 60 47" shape-rendering="geometricPrecision" text-rendering="geometricPrecision" image-rendering="optimizeQuality" fill-rule="evenodd" clip-rule="evenodd" id="repostbuttonicon" xmlns="http://www.w3.org/2000/svg"><defs><style>.bdfil0{fill:red}</style></defs><g id="bdLayer_x0020_1"><g id="bd_839273040"><path class="bdfil0" fill="red" d="M24 0l6 18h19L34 29l6 18-16-12L9 47l6-18L0 18h19z"/><path class="bdfil0" fill="red" d="M36 0l4 13h-7l-1-3 4-10zm21 18h3L45 29l6 18-9-7-3-10 18-12zM26 42l-6 5 1-4 3-2 2 1z"/></g></g></symbol><symbol viewBox="0 0 45 45" shape-rendering="geometricPrecision" text-rendering="geometricPrecision" image-rendering="optimizeQuality" fill-rule="evenodd" clip-rule="evenodd" id="workonghoursicon" xmlns="http://www.w3.org/2000/svg"><path d="M23 0c12 0 22 10 22 23 0 12-10 22-22 22C10 45 0 35 0 23 0 10 10 0 23 0zm-2 4h3v17h13v3H21V4z" fill="red"/></symbol></svg>